<?xml version="1.0" ?>
<svg id="Layer_1" style="enable-background:new 0 0 512 512;" version="1.1" viewBox="0 0 512 512" xml:space="preserve"
    xmlns="http://www.w3.org/2000/svg" xmlns:xlink="http://www.w3.org/1999/xlink">
    <g id="wood_4">
        <g>
            <path
                d="M454.809,152.797c-2.353-1.687-3.78-3.124-4.626-4.659c-0.001-0.003-0.181-0.327-0.183-0.33    c-7.68-13.841-18.923-26.062-32.513-35.344l-9.206-6.288c-3.692-2.712-7.721-8.074-11.977-15.944    c-1.908-3.526-4.559-6.371-7.666-8.229c-3.419-2.044-7.151-5.756-11.1-9.684c-7.925-7.883-16.103-16.06-25.861-15.104    c-3.095,0.283-6.148-0.366-8.84-1.911c-7.289-4.177-14.506-4.509-21.486-4.834c-6.692-0.307-13.013-0.598-19.268-4.307    c-2.054-1.219-4.462-2.094-7.155-2.598c-24.964-4.701-50.393-5.784-74.868-3.119c-2.685,0.291-5.289,1.075-7.736,2.335    l-0.632,0.324c-10.534,5.407-20.478,10.52-29.358,8.595c-4.068-0.881-8.506-0.366-12.837,1.496    c-2.119,0.911-4.216,1.789-6.289,2.659c-10.047,4.21-19.536,8.188-28.6,14.562c-2.005,1.41-3.731,3.163-5.131,5.213    c-5.52,8.102-10.509,10.681-15.791,13.412c-5.763,2.978-11.72,6.058-17.031,15.578c-1.571,2.158-2.915,2.817-4.759,3.717    c-5.397,2.637-9.475,5.714-12.807,21.359c-0.27,1.26-0.702,2.482-1.287,3.629c-4.521,8.88-8.576,19.769-12.154,29.378    c-0.785,2.108-1.55,4.163-2.295,6.127c-1.626,4.296-5.011,13.232-7.256,15.886c-2.679,3.166-4.316,7.263-4.735,11.85    c-1.499,16.39-2.68,20.179-3.073,21.021c-2.498,2.953-3.964,6.95-4.356,11.88c-0.014,0.174-0.018,0.349-0.01,0.524l1.812,41.482    c0.001,0.019,0.001,0.042,0.003,0.061c0.796,13.683,1.807,16.919,3.377,20.619c1.033,2.435,2.203,5.194,3.624,17.711    c0.011,0.105,0.028,0.213,0.047,0.316c2.248,11.8,5.03,15.614,7.975,19.65c2.64,3.618,5.37,7.36,8.59,19.27    c0.536,1.983,1.342,3.856,2.395,5.556c1.368,2.216,2.809,5.047,4.334,8.044c1.035,2.036,2.089,4.108,3.158,6.063    c3.147,5.756,8.857,8.692,12.774,10.351c1.414,0.906,4.226,6.595,5.962,10.113c2.823,5.706,8.483,9.673,15.901,11.16    c1.886,0.623,5.797,7.274,8.135,11.249c1.386,2.357,2.821,4.795,4.28,6.997c0.514,0.776,0.922,1.595,1.252,2.504    c4.442,12.243,10.452,12.041,15.742,10.894c2.68-0.582,3.095-0.673,4.613,1.836c2.09,3.454,5.137,6.39,8.807,8.49    c0.777,0.446,1.648,1.061,2.665,1.878c7.752,6.221,18.158,7.044,25.623,2.125c0.212,0.188,0.497,0.474,0.857,0.897    c6.098,7.149,14.629,6.329,22.153,5.617c1.363-0.13,2.738-0.263,4.113-0.349c4.34-0.33,13.949,7.002,20.322,11.819    c7.378,5.573,11.387,8.487,14.815,8.62c0.298,0.011,0.593,0.017,0.889,0.017c7.055,0,13.632-3.291,17.73-8.919    c2.256-3.1,4.417-4.762,6.421-4.933c2.035-0.183,4.572,1.166,7.486,3.994c4.767,4.62,11.265,6.908,17.816,6.274l2.234-0.199    c5.176-0.443,10.527-0.903,16.077-3.95c3.072-1.687,5.721-4.172,7.663-7.188c7.612-11.822,14.358-12.307,22.169-12.869    c8.209-0.59,17.513-1.26,26.007-15.11c11.438-21.428,21.824-29.804,31.868-37.906c2.051-1.656,4.065-3.28,6.038-4.975    c1.726-1.482,3.219-3.418,4.565-5.917c0.558-1.033,0.914-1.299,0.904-1.307c0.162-0.036,0.686-0.006,1.032,0.019    c7.781,0.451,10.983-4.435,13.732-20.985c0.332-2.008,0.942-3.681,1.809-4.969c2.357-3.498,4.3-9.745,6.358-16.354    c1.381-4.44,3.469-11.152,4.634-12.476c2.318-2.626,3.624-5.764,4.404-7.894c3.705-10.132,6.825-19.653,9.541-29.106    c1.731-6.03,3.325-12.152,4.737-18.196c0.022-0.097,0.042-0.194,0.057-0.294l6.363-39.704c0.032-0.199,0.05-0.402,0.054-0.604    c0.054-3.401,0.071-7.144,0.05-10.991C469.142,183.573,464.376,159.655,454.809,152.797z M425.869,218.929    c-0.008,0.125-0.012,0.252-0.011,0.377c0.13,8.595-0.522,17.34-1.938,25.987c-23.773,130.023-96.939,168.664-118.769,177.397    c-79.167,30.982-161.093-23.317-197.96-90.081c-5.827-10.883-10.573-22.29-14.106-33.907    c-15.319-50.357-7.602-101.972,21.73-145.333c0.089-0.133,0.17-0.269,0.244-0.41c3.976-7.59,8.729-14.764,14.129-21.32    c15.232-18.5,36.253-32.777,60.789-41.28c10.375-3.595,21.362-6.169,32.623-7.645c8.211-1.011,16.517-1.504,24.849-1.504    c42.913,0,86.425,13.141,120.177,36.893c8.272,5.825,15.883,12.257,22.51,19.007C414.695,164.087,427.717,193.908,425.869,218.929    z"
                style="fill:#2d96d1;" />
            <path
                d="M325.601,115.58c-0.094-0.033-0.19-0.064-0.285-0.091c-57.972-16.564-108.276-15.318-149.684,3.803    c-37.523,19.456-61.506,53.595-67.531,96.128c-7.714,54.457,14.303,115.295,56.195,155.091    c28.037,24.924,59.896,37.754,93.203,37.754c7.266,0,14.606-0.612,21.985-1.842c0.096-0.017,0.191-0.036,0.287-0.058    c61.617-14.67,82.77-74.353,101.432-127.012c4.414-12.454,8.584-24.217,13.178-35.225c0.087-0.211,0.159-0.429,0.212-0.651    c2.429-10.163,3.703-20.19,3.777-29.53C401.902,165.561,364.366,129.679,325.601,115.58z M347.229,242.756    c-1.623,5.731-3.205,11.7-4.821,17.8c-11.372,42.928-24.262,91.577-64.902,106.205c-37.888,10.268-77.095-4.158-100.032-36.92    c-62.769-81.599-29.245-136.821-17.462-151.817c19.455-25.012,48.026-38.505,80.369-38.505c6.627,0,13.412,0.565,20.309,1.715    c66.279,10.196,85.024,50.227,90.29,73.486C351.141,223.474,349.88,232.906,347.229,242.756z"
                style="fill:#2d96d1;" />
            <path
                d="M310.871,216.699c-10.166-24.666-32.462-44.022-58.189-50.51    c-21.964-5.54-43.394-0.958-60.538,13.082c-24.763,22.996-34.146,58.916-24.49,93.748c9.188,33.142,33.387,56.886,64.746,63.548    c5.187,1.468,10.189,2.202,14.991,2.202c8.247,0,15.901-2.163,22.87-6.484c19.322-11.974,32.731-39.516,40.996-84.203    c2.235-11.335,2.167-21.708-0.201-30.832C311.007,217.062,310.946,216.879,310.871,216.699z M245.075,288.462    c-8.217,4.764-17.41,4.293-26.6-1.354c-10.878-9.202-17.527-24.802-16.564-38.92c0.553-8.11,3.807-19.389,16.146-27.187    c5.756-2.839,24.514-10.135,36.879,7.434c0.136,0.194,0.288,0.374,0.454,0.543c5.37,5.429,8.059,13.448,7.576,22.58    c-0.007,0.13-0.007,0.26-0.003,0.391C263.549,267.001,256.194,282.014,245.075,288.462z"
                style="fill:#2d96d1;" />
        </g>
        <g>
            <path
                d="M454.809,152.797c-2.353-1.687-3.78-3.124-4.626-4.659c-0.001-0.003-0.181-0.327-0.183-0.33    c-7.68-13.841-18.923-26.062-32.513-35.344l-9.206-6.288c-3.692-2.712-7.721-8.074-11.977-15.944    c-1.908-3.526-4.559-6.371-7.666-8.229c-3.419-2.044-7.151-5.756-11.1-9.684c-7.925-7.883-16.103-16.06-25.861-15.104    c-3.095,0.283-6.148-0.366-8.84-1.911c-7.289-4.177-14.506-4.509-21.486-4.834c-6.692-0.307-13.013-0.598-19.268-4.307    c-2.054-1.219-4.462-2.094-7.155-2.598c-24.964-4.701-50.393-5.784-74.868-3.119c-2.685,0.291-5.289,1.075-7.736,2.335    l-0.632,0.324c-10.534,5.407-20.478,10.52-29.358,8.595c-4.068-0.881-8.506-0.366-12.837,1.496    c-2.119,0.911-4.216,1.789-6.289,2.659c-10.047,4.21-19.536,8.188-28.6,14.562c-2.005,1.41-3.731,3.163-5.131,5.213    c-5.52,8.102-10.509,10.681-15.791,13.412c-5.763,2.978-11.72,6.058-17.031,15.578c-1.571,2.158-2.915,2.817-4.759,3.717    c-5.397,2.637-9.475,5.714-12.807,21.359c-0.27,1.26-0.702,2.482-1.287,3.629c-4.521,8.88-8.576,19.769-12.154,29.378    c-0.785,2.108-1.55,4.163-2.295,6.127c-1.626,4.296-5.011,13.232-7.256,15.886c-2.679,3.166-4.316,7.263-4.735,11.85    c-1.499,16.39-2.68,20.179-3.073,21.021c-2.498,2.953-3.964,6.95-4.356,11.88c-0.014,0.174-0.018,0.349-0.01,0.524l1.812,41.482    c0.001,0.019,0.001,0.042,0.003,0.061c0.796,13.683,1.807,16.919,3.377,20.619c1.033,2.435,2.203,5.194,3.624,17.711    c0.011,0.105,0.028,0.213,0.047,0.316c2.248,11.8,5.03,15.614,7.975,19.65c2.64,3.618,5.37,7.36,8.59,19.27    c0.536,1.983,1.342,3.856,2.395,5.556c1.368,2.216,2.809,5.047,4.334,8.044c1.035,2.036,2.089,4.108,3.158,6.063    c3.147,5.756,8.857,8.692,12.774,10.351c1.414,0.906,4.226,6.595,5.962,10.113c2.823,5.706,8.483,9.673,15.901,11.16    c1.886,0.623,5.797,7.274,8.135,11.249c1.386,2.357,2.821,4.795,4.28,6.997c0.514,0.776,0.922,1.595,1.252,2.504    c4.442,12.243,10.452,12.041,15.742,10.894c2.68-0.582,3.095-0.673,4.613,1.836c2.09,3.454,5.137,6.39,8.807,8.49    c0.777,0.446,1.648,1.061,2.665,1.878c7.752,6.221,18.158,7.044,25.623,2.125c0.212,0.188,0.497,0.474,0.857,0.897    c6.098,7.149,14.629,6.329,22.153,5.617c1.363-0.13,2.738-0.263,4.113-0.349c4.34-0.33,13.949,7.002,20.322,11.819    c7.378,5.573,11.387,8.487,14.815,8.62c0.298,0.011,0.593,0.017,0.889,0.017c7.055,0,13.632-3.291,17.73-8.919    c2.256-3.1,4.417-4.762,6.421-4.933c2.035-0.183,4.572,1.166,7.486,3.994c4.767,4.62,11.265,6.908,17.816,6.274l2.234-0.199    c5.176-0.443,10.527-0.903,16.077-3.95c3.072-1.687,5.721-4.172,7.663-7.188c7.612-11.822,14.358-12.307,22.169-12.869    c8.209-0.59,17.513-1.26,26.007-15.11c11.438-21.428,21.824-29.804,31.868-37.906c2.051-1.656,4.065-3.28,6.038-4.975    c1.726-1.482,3.219-3.418,4.565-5.917c0.558-1.033,0.914-1.299,0.904-1.307c0.162-0.036,0.686-0.006,1.032,0.019    c7.781,0.451,10.983-4.435,13.732-20.985c0.332-2.008,0.942-3.681,1.809-4.969c2.357-3.498,4.3-9.745,6.358-16.354    c1.381-4.44,3.469-11.152,4.634-12.476c2.318-2.626,3.624-5.764,4.404-7.894c3.705-10.132,6.825-19.653,9.541-29.106    c1.731-6.03,3.325-12.152,4.737-18.196c0.022-0.097,0.042-0.194,0.057-0.294l6.363-39.704c0.032-0.199,0.05-0.402,0.054-0.604    c0.054-3.401,0.071-7.144,0.05-10.991C469.142,183.573,464.376,159.655,454.809,152.797z M425.869,218.929    c-0.008,0.125-0.012,0.252-0.011,0.377c0.13,8.595-0.522,17.34-1.938,25.987c-23.773,130.023-96.939,168.664-118.769,177.397    c-79.167,30.982-161.093-23.317-197.96-90.081c-5.827-10.883-10.573-22.29-14.106-33.907    c-15.319-50.357-7.602-101.972,21.73-145.333c0.089-0.133,0.17-0.269,0.244-0.41c3.976-7.59,8.729-14.764,14.129-21.32    c15.232-18.5,36.253-32.777,60.789-41.28c10.375-3.595,21.362-6.169,32.623-7.645c8.211-1.011,16.517-1.504,24.849-1.504    c42.913,0,86.425,13.141,120.177,36.893c8.272,5.825,15.883,12.257,22.51,19.007C414.695,164.087,427.717,193.908,425.869,218.929    z"
                style="fill:#2d96d1;" />
            <path
                d="M325.601,115.58c-0.094-0.033-0.19-0.064-0.285-0.091c-57.972-16.564-108.276-15.318-149.684,3.803    c-37.523,19.456-61.506,53.595-67.531,96.128c-7.714,54.457,14.303,115.295,56.195,155.091    c28.037,24.924,59.896,37.754,93.203,37.754c7.266,0,14.606-0.612,21.985-1.842c0.096-0.017,0.191-0.036,0.287-0.058    c61.617-14.67,82.77-74.353,101.432-127.012c4.414-12.454,8.584-24.217,13.178-35.225c0.087-0.211,0.159-0.429,0.212-0.651    c2.429-10.163,3.703-20.19,3.777-29.53C401.902,165.561,364.366,129.679,325.601,115.58z M347.229,242.756    c-1.623,5.731-3.205,11.7-4.821,17.8c-11.372,42.928-24.262,91.577-64.902,106.205c-37.888,10.268-77.095-4.158-100.032-36.92    c-62.769-81.599-29.245-136.821-17.462-151.817c19.455-25.012,48.026-38.505,80.369-38.505c6.627,0,13.412,0.565,20.309,1.715    c66.279,10.196,85.024,50.227,90.29,73.486C351.141,223.474,349.88,232.906,347.229,242.756z"
                style="fill:#2d96d1;" />
            <path
                d="M310.871,216.699c-10.166-24.666-32.462-44.022-58.189-50.51    c-21.964-5.54-43.394-0.958-60.538,13.082c-24.763,22.996-34.146,58.916-24.49,93.748c9.188,33.142,33.387,56.886,64.746,63.548    c5.187,1.468,10.189,2.202,14.991,2.202c8.247,0,15.901-2.163,22.87-6.484c19.322-11.974,32.731-39.516,40.996-84.203    c2.235-11.335,2.167-21.708-0.201-30.832C311.007,217.062,310.946,216.879,310.871,216.699z M245.075,288.462    c-8.217,4.764-17.41,4.293-26.6-1.354c-10.878-9.202-17.527-24.802-16.564-38.92c0.553-8.11,3.807-19.389,16.146-27.187    c5.756-2.839,24.514-10.135,36.879,7.434c0.136,0.194,0.288,0.374,0.454,0.543c5.37,5.429,8.059,13.448,7.576,22.58    c-0.007,0.13-0.007,0.26-0.003,0.391C263.549,267.001,256.194,282.014,245.075,288.462z"
                style="fill:#2d96d1;" />
        </g>
    </g>
</svg>